<svg width="1024" height="768" xmlns="http://www.w3.org/2000/svg">
  <image href="https://stamen-tiles.a.ssl.fastly.net/watercolor/12/1205/1538.jpg" height="256" width="256" x="0" y="0" />
  <image href="https://stamen-tiles.a.ssl.fastly.net/watercolor/12/1205/1539.jpg" height="256" width="256" x="0" y="256" />
  <image href="https://stamen-tiles.a.ssl.fastly.net/watercolor/12/1205/1540.jpg" height="256" width="256" x="0" y="512" />
  <image href="https://stamen-tiles.a.ssl.fastly.net/watercolor/12/1206/1538.jpg" height="256" width="256" x="256" y="0" />
  <image href="https://stamen-tiles.a.ssl.fastly.net/watercolor/12/1206/1539.jpg" height="256" width="256" x="256" y="256" />
  <image href="https://stamen-tiles.a.ssl.fastly.net/watercolor/12/1206/1540.jpg" height="256" width="256" x="256" y="512" />
  <image href="https://stamen-tiles.a.ssl.fastly.net/watercolor/12/1207/1538.jpg" height="256" width="256" x="512" y="0" />
  <image href="https://stamen-tiles.a.ssl.fastly.net/watercolor/12/1207/1539.jpg" height="256" width="256" x="512" y="256" />
  <image href="https://stamen-tiles.a.ssl.fastly.net/watercolor/12/1207/1540.jpg" height="256" width="256" x="512" y="512" />
  <image href="https://stamen-tiles.a.ssl.fastly.net/watercolor/12/1208/1538.jpg" height="256" width="256" x="768" y="0" />
  <image href="https://stamen-tiles.a.ssl.fastly.net/watercolor/12/1208/1539.jpg" height="256" width="256" x="768" y="256" />
  <image href="https://stamen-tiles.a.ssl.fastly.net/watercolor/12/1208/1540.jpg" height="256" width="256" x="768" y="512" />
  <circle cx="311" cy="366" r="5" />
  <text x="321" y="371">Midtown</text>
  <circle cx="445" cy="160" r="5" />
  <text x="455" y="165">Harlem</text>
  <circle cx="825" cy="567" r="5" />
  <text x="835" y="572">Jamaica</text>
  <line x1="311" y1="366" x2="445" y2="160" stroke="black" />
  <line x1="311" y1="366" x2="825" y2="567" stroke="black" />
</svg>